<svg width="390" height="390" viewBox="0 0 390 390" fill="none" xmlns="http://www.w3.org/2000/svg">
<g filter="url(#filter0_d)">
<mask id="mask0" mask-type="alpha" maskUnits="userSpaceOnUse" x="5" y="4" width="380" height="380">
<circle cx="195" cy="194" r="190" fill="#FFEDEF"/>
</mask>
<g mask="url(#mask0)">
<circle cx="195" cy="194" r="190" fill="#F4D150"/>
<g clip-path="url(#clip0)">
<path d="M252 368.5C237.6 348.5 226.333 309.834 225 290.5L156.5 261L128 368.5H252Z" fill="#AC6651" stroke="black" stroke-width="4"/>
<mask id="mask1" mask-type="alpha" maskUnits="userSpaceOnUse" x="128" y="261" width="124" height="118">
<path d="M252 378.5C237.6 358.5 226.333 309.834 225 290.5L156.5 261L128 378.5H252Z" fill="#AC6651"/>
</mask>
<g mask="url(#mask1)">
<g style="mix-blend-mode:multiply">
<ellipse cx="222" cy="259" rx="59" ry="54" fill="black"/>
</g>
</g>
<mask id="path-6-inside-1" fill="white">
<path fill-rule="evenodd" clip-rule="evenodd" d="M281.886 199.917C281.859 199.801 281.831 199.685 281.803 199.569C281.776 199.454 281.748 199.338 281.719 199.222L265.323 130.786C265.306 130.718 265.29 130.65 265.274 130.582C265.258 130.514 265.242 130.446 265.225 130.379L265.152 130.075L265.151 130.076C254.933 88.6308 213.156 63.1472 171.582 73.1081C130.008 83.0689 104.315 124.717 113.988 166.293L113.986 166.293L130.978 237.211L130.992 237.208C141.594 278.112 183.062 303.149 224.329 293.261C265.597 283.374 291.216 242.264 282.131 200.996L282.144 200.993L281.886 199.917Z"/>
</mask>
<path fill-rule="evenodd" clip-rule="evenodd" d="M281.886 199.917C281.859 199.801 281.831 199.685 281.803 199.569C281.776 199.454 281.748 199.338 281.719 199.222L265.323 130.786C265.306 130.718 265.29 130.65 265.274 130.582C265.258 130.514 265.242 130.446 265.225 130.379L265.152 130.075L265.151 130.076C254.933 88.6308 213.156 63.1472 171.582 73.1081C130.008 83.0689 104.315 124.717 113.988 166.293L113.986 166.293L130.978 237.211L130.992 237.208C141.594 278.112 183.062 303.149 224.329 293.261C265.597 283.374 291.216 242.264 282.131 200.996L282.144 200.993L281.886 199.917Z" fill="#AC6651"/>
<path d="M281.886 199.917L277.992 200.831L277.994 200.84L277.996 200.849L281.886 199.917ZM281.719 199.222L277.83 200.154L277.832 200.163L277.834 200.172L281.719 199.222ZM265.323 130.786L261.43 131.708L261.433 131.718L265.323 130.786ZM265.225 130.379L261.335 131.311L261.338 131.321L265.225 130.379ZM265.152 130.075L269.042 129.143L268.111 125.255L264.222 126.185L265.152 130.075ZM265.151 130.076L261.267 131.033L262.218 134.89L266.081 133.966L265.151 130.076ZM171.582 73.1081L170.65 69.2182L171.582 73.1081ZM113.988 166.293L114.922 170.182L118.784 169.255L117.884 165.386L113.988 166.293ZM113.986 166.293L113.052 162.404L109.165 163.337L110.096 167.225L113.986 166.293ZM130.978 237.211L127.088 238.143L128.02 242.035L131.911 241.101L130.978 237.211ZM130.992 237.208L134.864 236.204L133.878 232.401L130.058 233.318L130.992 237.208ZM224.329 293.261L223.397 289.371H223.397L224.329 293.261ZM282.131 200.996L281.2 197.106L277.381 198.021L278.225 201.856L282.131 200.996ZM282.144 200.993L283.075 204.883L286.966 203.951L286.034 200.061L282.144 200.993ZM285.78 199.002C285.751 198.881 285.722 198.759 285.693 198.637L277.914 200.502C277.94 200.611 277.966 200.721 277.992 200.831L285.78 199.002ZM285.693 198.637C285.664 198.516 285.635 198.395 285.605 198.273L277.834 200.172C277.861 200.281 277.887 200.391 277.914 200.502L285.693 198.637ZM261.433 131.718L277.83 200.154L285.609 198.29L269.212 129.854L261.433 131.718ZM269.215 129.863C269.198 129.793 269.181 129.722 269.164 129.65L261.384 131.514C261.4 131.578 261.415 131.643 261.43 131.708L269.215 129.863ZM269.164 129.65C269.147 129.579 269.13 129.508 269.113 129.436L261.338 131.321C261.353 131.385 261.369 131.449 261.384 131.514L269.164 129.65ZM261.262 131.007L261.335 131.311L269.115 129.447L269.042 129.143L261.262 131.007ZM266.081 133.966L266.083 133.966L264.222 126.185L264.221 126.185L266.081 133.966ZM269.035 129.118C258.291 85.5398 214.364 58.7447 170.65 69.2182L172.514 76.998C211.949 67.5498 251.575 91.7219 261.267 131.033L269.035 129.118ZM170.65 69.2182C126.936 79.6917 99.9216 123.484 110.092 167.199L117.884 165.386C108.709 125.951 133.08 86.4461 172.514 76.998L170.65 69.2182ZM114.92 170.183L114.922 170.182L113.054 162.403L113.052 162.404L114.92 170.183ZM134.868 236.279L117.876 165.361L110.096 167.225L127.088 238.143L134.868 236.279ZM130.058 233.318L130.044 233.322L131.911 241.101L131.925 241.097L130.058 233.318ZM127.12 238.211C138.268 281.223 181.869 307.548 225.261 297.151L223.397 289.371C184.254 298.75 144.92 275.002 134.864 236.204L127.12 238.211ZM225.261 297.151C268.653 286.755 295.591 243.53 286.038 200.136L278.225 201.856C286.842 240.999 262.541 279.993 223.397 289.371L225.261 297.151ZM281.212 197.103L281.2 197.106L283.063 204.886L283.075 204.883L281.212 197.103ZM277.996 200.849L278.254 201.925L286.034 200.061L285.776 198.985L277.996 200.849Z" fill="black" mask="url(#path-6-inside-1)"/>
</g>
<path d="M227 138.214C232.667 135.548 246 133.114 254 144.714" stroke="black" stroke-width="4" stroke-linecap="round"/>
<path d="M151.579 163.521C153.65 157.61 161.261 146.396 175.142 148.822" stroke="black" stroke-width="4" stroke-linecap="round"/>
<path d="M276.177 89.3965C267.855 129.294 169.499 134.896 149.677 134.896C97.6548 140.823 122.625 203.262 132.177 234.396C124.677 235.396 125.677 244.396 96.6772 172.896C73.4772 115.696 139.183 80.8337 187.999 68.9995C236.815 57.1653 255.499 40.502 255.499 40.502C276.177 49 281.116 65.7185 276.177 89.3965Z" fill="black"/>
<path d="M271.134 162.947L255.316 109.507L265.354 100.364C276.109 137.452 276.601 158.988 271.134 162.947Z" fill="black"/>
<path d="M146 208C140.4 180.8 126.333 185.667 117 187L107 143L147.584 134.506C148.336 134.266 149.141 134.095 150 134L147.584 134.506C129.433 140.299 141.956 186.796 157 206L146 208Z" fill="black"/>
<path d="M90.9887 105.363C99.8341 100.909 110.281 103.487 114.398 105.333L102.627 120.213C105.663 115.357 96.1329 108.29 90.9887 105.363Z" fill="black"/>
<path d="M76 122.5C87.6 115.7 98.8333 118 103 120L98.5 135.5C97.3 127.1 83 123.333 76 122.5Z" fill="black"/>
<path d="M208.277 184.926C213.497 182.94 222.601 183.54 222.04 193.639C221.542 202.615 212.333 204.397 209.4 202.304" stroke="black" stroke-width="4"/>
<path d="M235.552 333.449L235.692 333.481L235.836 333.493C281.961 337.297 309.62 357.785 329.694 386H56.3745C72.6742 356.658 95.8579 337.982 133.445 329.412C149.458 325.761 168.113 323.939 190 323.939C199.456 323.939 206.814 325.382 213.796 327.285C216.383 327.99 218.983 328.78 221.643 329.589C226.045 330.927 230.611 332.314 235.552 333.449Z" fill="#F4D150" stroke="black" stroke-width="4"/>
<path d="M121.931 331.581L131.084 311.984C131.302 311.516 131.846 311.293 132.333 311.465C170.259 324.89 204.762 323.945 236.736 315.044C237.139 314.932 237.569 315.081 237.815 315.418L251.747 334.47C252.13 334.994 251.935 335.732 251.331 335.97C217.724 349.166 154.663 346.923 122.415 332.904C121.904 332.681 121.694 332.086 121.931 331.581Z" fill="#F4D150" stroke="black" stroke-width="4"/>
<path d="M153.5 182.5L119 189.125" stroke="black" stroke-width="4" stroke-linecap="round"/>
<path d="M149.488 165.939C148.618 162.48 150.94 159.031 154.472 158.534L193.188 153.093C196.47 152.632 199.504 154.918 199.965 158.2L205.532 197.81C205.993 201.092 203.707 204.126 200.425 204.587L165.953 209.432C162.916 209.859 160.047 207.927 159.299 204.954L149.488 165.939Z" stroke="black" stroke-width="4"/>
<path d="M271.751 148.964C271.634 145.399 268.451 142.723 264.919 143.22L226.203 148.661C222.921 149.122 220.635 152.156 221.096 155.437L226.663 195.048C227.124 198.33 230.158 200.616 233.44 200.155L267.912 195.31C270.949 194.883 273.175 192.236 273.074 189.171L271.751 148.964Z" stroke="black" stroke-width="4"/>
<path d="M202.5 177.125L224.5 173.625" stroke="black" stroke-width="4"/>
<ellipse cx="180.117" cy="176.927" rx="9" ry="10" transform="rotate(-6.77646 180.117 176.927)" fill="black"/>
<ellipse cx="244.149" cy="166.923" rx="9" ry="10" transform="rotate(-6.27568 244.149 166.923)" fill="black"/>
<path d="M132.5 186.176C130.17 185.408 127.655 185 125.08 185C114.587 185 106.08 191.5 107.08 203.5C108.122 216 115.587 220.5 126.08 220.5C127.248 220.5 128.391 220.397 129.5 220.201C130.711 219.987 131.881 219.661 133 219.235" stroke="black" stroke-width="8"/>
<path d="M133.5 219.036C131.22 219.979 128.713 220.5 126.08 220.5C115.587 220.5 108.122 216 107.08 203.5C106.08 191.5 114.587 185 125.08 185C128.217 185 131.267 185.606 134 186.73L133.5 219.036Z" fill="#AC6651"/>
<path d="M129.5 193.5C125.5 191.667 116.7 190.7 113.5 201.5" stroke="black" stroke-width="4"/>
<path d="M119 194C121.167 195.833 125.3 201.5 124.5 209.5" stroke="black" stroke-width="4"/>
<path d="M248.92 219.331C248.75 217.263 246.636 216.112 244.845 216.818C240.616 218.484 226.627 223.783 216.763 225.14C205.94 226.629 189.55 224.821 184.806 224.232C182.877 223.992 181.157 225.65 181.49 227.665C182.142 231.608 183.484 235.409 185.459 238.891C187.661 242.775 190.606 246.188 194.127 248.933C197.648 251.679 201.676 253.704 205.979 254.893C210.283 256.083 214.779 256.413 219.21 255.864C223.641 255.316 227.921 253.901 231.805 251.698C235.689 249.496 239.101 246.55 241.847 243.029C244.593 239.508 246.618 235.481 247.807 231.178C248.873 227.321 249.248 223.311 248.92 219.331Z" fill="#171921" stroke="#171921" stroke-width="4"/>
<mask id="mask2" mask-type="alpha" maskUnits="userSpaceOnUse" x="183" y="218" width="65" height="37">
<path d="M246.793 218.193C247.309 222.363 246.999 226.594 245.879 230.645C244.76 234.695 242.854 238.486 240.27 241.8C237.686 245.113 234.474 247.886 230.818 249.958C227.163 252.031 223.135 253.364 218.964 253.88C214.794 254.396 210.563 254.085 206.512 252.966C202.462 251.846 198.671 249.94 195.357 247.356C192.043 244.772 189.271 241.56 187.198 237.905C185.126 234.249 183.793 230.221 183.277 226.051L246.793 218.193Z" fill="#171921"/>
</mask>
<g mask="url(#mask2)">
<circle cx="219.522" cy="258.315" r="21.5" transform="rotate(-7.05286 219.522 258.315)" fill="#FC909F"/>
</g>
</g>
</g>
<defs>
<filter id="filter0_d" x="0" y="0" width="390" height="390" filterUnits="userSpaceOnUse" color-interpolation-filters="sRGB">
<feFlood flood-opacity="0" result="BackgroundImageFix"/>
<feColorMatrix in="SourceAlpha" type="matrix" values="0 0 0 0 0 0 0 0 0 0 0 0 0 0 0 0 0 0 127 0"/>
<feOffset dy="1"/>
<feGaussianBlur stdDeviation="2.5"/>
<feColorMatrix type="matrix" values="0 0 0 0 0 0 0 0 0 0 0 0 0 0 0 0 0 0 0.15 0"/>
<feBlend mode="normal" in2="BackgroundImageFix" result="effect1_dropShadow"/>
<feBlend mode="normal" in="SourceGraphic" in2="effect1_dropShadow" result="shape"/>
</filter>
<clipPath id="clip0">
<rect width="200" height="320" fill="white" transform="translate(98 49)"/>
</clipPath>
</defs>
</svg>
